<?xml version="1.0" encoding="UTF-8" standalone="no"?>
<!-- Created with Inkscape (http://www.inkscape.org/) -->

<svg
   xmlns:dc="http://purl.org/dc/elements/1.1/"
   xmlns:cc="http://creativecommons.org/ns#"
   xmlns:rdf="http://www.w3.org/1999/02/22-rdf-syntax-ns#"
   xmlns:svg="http://www.w3.org/2000/svg"
   xmlns="http://www.w3.org/2000/svg"
   xmlns:sodipodi="http://sodipodi.sourceforge.net/DTD/sodipodi-0.dtd"
   xmlns:inkscape="http://www.inkscape.org/namespaces/inkscape"
   id="svg3105"
   version="1.1"
   inkscape:version="0.48.2 r9819"
   width="625"
   height="450"
   sodipodi:docname="gazellelogoswoosh.svg">
  <metadata
     id="metadata3111">
    <rdf:RDF>
      <cc:Work
         rdf:about="">
        <dc:format>image/svg+xml</dc:format>
        <dc:type
           rdf:resource="http://purl.org/dc/dcmitype/StillImage" />
        <dc:title />
      </cc:Work>
    </rdf:RDF>
  </metadata>
  <defs
     id="defs3109" />
  <sodipodi:namedview
     pagecolor="#ffffff"
     bordercolor="#666666"
     borderopacity="0"
     objecttolerance="10"
     gridtolerance="10"
     guidetolerance="10"
     inkscape:pageopacity="0"
     inkscape:pageshadow="2"
     inkscape:window-width="1468"
     inkscape:window-height="933"
     id="namedview3107"
     showgrid="false"
     inkscape:zoom="1.4572057"
     inkscape:cx="283.10327"
     inkscape:cy="234.26776"
     inkscape:window-x="68"
     inkscape:window-y="16"
     inkscape:window-maximized="0"
     inkscape:current-layer="svg3105"
     showborder="false"
     inkscape:showpageshadow="false" />
  <path
     style="fill:#ff6600"
     d="m 409.29487,335.78281 c 0.81048,-0.97657 -0.0989,-3.21235 -3.79412,-9.32845 -2.67305,-4.42422 -5.87878,-8.96185 -7.12386,-10.08362 -1.24508,-1.12177 -8.15955,-5.56806 -15.36549,-9.88066 -7.20594,-4.31259 -17.90567,-11.84949 -23.77717,-16.74866 -8.49687,-7.08976 -13.09907,-10.07423 -22.55148,-14.62439 l -11.876,-5.71681 -9.71755,0 c -9.0411,0 -9.71755,-0.13389 -9.71755,-1.9235 0,-4.11347 9.8258,-28.77198 13.92003,-34.93326 2.31362,-3.48169 4.97211,-8.73233 5.90776,-11.66808 0.93564,-2.93575 6.09296,-12.65285 11.46069,-21.59356 l 9.75952,-16.25582 8.16867,0 c 7.95523,0 8.40387,0.1268 17.17001,4.85249 13.27193,7.15469 18.1069,6.72755 21.8307,-1.92865 1.67192,-3.8865 1.92967,-5.59062 1.22925,-8.12733 -0.98079,-3.5521 -12.56069,-21.96074 -16.3457,-25.98483 -2.10706,-2.24016 -2.3242,-3.10837 -1.74442,-6.97464 0.57103,-3.80792 -0.003,-6.26192 -4.16702,-17.82177 -2.65608,-7.37319 -6.69515,-19.37705 -8.97571,-26.67525 L 359.43895,87.09657 348.36828,73.19211 C 340.76705,63.64518 334.5081,56.95434 328.39657,51.84229 318.64496,43.68547 316.37968,40.425 315.41577,33.15869 c -0.56359,-4.24856 -0.74368,-4.54407 -1.50881,-2.47572 -2.18206,5.89866 3.81001,18.03946 14.3647,29.10494 6.38532,6.69435 21.69987,28.27392 20.96011,29.53468 -0.29691,0.50602 -2.73022,-1.67759 -5.40736,-4.85248 C 334.86753,73.84789 317.57798,57.28969 310.22413,52.29114 300.59415,45.74545 293.96247,38.8228 292.20109,33.47729 l -1.40867,-4.27505 0.35563,5.11549 c 0.47794,6.87466 1.97984,8.78916 21.53167,27.44668 l 16.4691,15.7158 11.02747,21.28412 c 6.06511,11.70627 10.8068,21.50478 10.5371,21.77448 -0.2697,0.2697 -3.04844,-0.17495 -6.17498,-0.98811 -7.2384,-1.8826 -9.48621,-4.40345 -8.72266,-9.78221 0.41551,-2.92705 -0.0826,-5.41375 -2.00137,-9.99093 -1.40502,-3.35166 -3.00082,-5.94519 -3.54623,-5.76338 -1.61282,0.5376 -4.35965,9.54651 -4.44085,14.56485 -0.0452,2.79315 0.66399,6.09749 1.77683,8.27882 l 1.85204,3.63031 -3.79981,2.18689 c -3.05382,1.75755 -4.63478,3.84757 -8.05291,10.64587 -16.63657,24.64084 -36.99799,72.57307 -55.43758,77.42032 -13.09676,3.15562 -31.65192,8.08232 -39.49745,13.05371 -83.38154,82.64744 -124.480108,32.27431 -121.53047,37.799 43.15986,136.13127 145.91281,10.28821 228.70582,36.41062 8.07932,2.88767 9.23214,3.08566 10.08584,1.73225 2.23871,-3.54908 6.88538,-1.69818 23.57937,9.39233 14.21083,9.44083 16.6586,10.7369 20.27791,10.7369 4.06429,0 4.178,0.0947 9.01908,7.51048 2.69659,4.13076 4.98058,7.58603 5.07552,7.67836 0.0949,0.0923 2.46195,0.58289 5.26001,1.09011 3.93031,0.71246 5.32984,0.63009 6.15337,-0.36219 z"
     id="path3159"
     inkscape:connector-curvature="0"
     sodipodi:nodetypes="cssssscssssscsssssscscssssssssscsscssssscsscscccccsssscsc" />
  <path
     style="fill:#ff6600"
     d=""
     id="path3161"
     inkscape:connector-curvature="0" />
  <path
     style="fill:#ff6600"
     d=""
     id="path3163"
     inkscape:connector-curvature="0" />
</svg>
